<mxfile host="app.diagrams.net" agent="Mozilla/5.0 (X11; Linux x86_64) AppleWebKit/537.36 (KHTML, like Gecko) Chrome/131.0.0.0 Safari/537.36" version="24.8.9">
  <diagram name="Страница — 1" id="D6ns9xDqqRzAWPxw2lhF">
    <mxGraphModel dx="809" dy="1356" grid="1" gridSize="10" guides="1" tooltips="1" connect="1" arrows="1" fold="1" page="1" pageScale="1" pageWidth="827" pageHeight="1169" math="0" shadow="0">
      <root>
        <mxCell id="0" />
        <mxCell id="1" parent="0" />
        <mxCell id="x3x7l86GUneWaQ4rL31x-11" style="edgeStyle=orthogonalEdgeStyle;rounded=0;orthogonalLoop=1;jettySize=auto;html=1;exitX=0.5;exitY=1;exitDx=0;exitDy=0;entryX=0.5;entryY=0;entryDx=0;entryDy=0;endArrow=none;endFill=0;" edge="1" parent="1" source="x3x7l86GUneWaQ4rL31x-1" target="x3x7l86GUneWaQ4rL31x-8">
          <mxGeometry relative="1" as="geometry" />
        </mxCell>
        <mxCell id="x3x7l86GUneWaQ4rL31x-1" value="&lt;font style=&quot;font-size: 18px;&quot; face=&quot;Lucida Console&quot;&gt;Начало&lt;/font&gt;" style="rounded=1;whiteSpace=wrap;html=1;arcSize=50;" vertex="1" parent="1">
          <mxGeometry x="40" y="40" width="160" height="80" as="geometry" />
        </mxCell>
        <mxCell id="x3x7l86GUneWaQ4rL31x-13" style="edgeStyle=orthogonalEdgeStyle;rounded=0;orthogonalLoop=1;jettySize=auto;html=1;exitX=0.5;exitY=1;exitDx=0;exitDy=0;entryX=0.5;entryY=0;entryDx=0;entryDy=0;endArrow=none;endFill=0;" edge="1" parent="1" source="x3x7l86GUneWaQ4rL31x-3" target="x3x7l86GUneWaQ4rL31x-5">
          <mxGeometry relative="1" as="geometry" />
        </mxCell>
        <mxCell id="x3x7l86GUneWaQ4rL31x-18" style="edgeStyle=orthogonalEdgeStyle;rounded=0;orthogonalLoop=1;jettySize=auto;html=1;exitX=1;exitY=0.5;exitDx=0;exitDy=0;entryX=0;entryY=0.5;entryDx=0;entryDy=0;endArrow=none;endFill=0;" edge="1" parent="1" source="x3x7l86GUneWaQ4rL31x-3" target="x3x7l86GUneWaQ4rL31x-10">
          <mxGeometry relative="1" as="geometry" />
        </mxCell>
        <mxCell id="x3x7l86GUneWaQ4rL31x-3" value="&lt;font face=&quot;Lucida Console&quot;&gt;input != NULL&lt;/font&gt;" style="rhombus;whiteSpace=wrap;html=1;" vertex="1" parent="1">
          <mxGeometry x="40" y="260" width="160" height="80" as="geometry" />
        </mxCell>
        <mxCell id="x3x7l86GUneWaQ4rL31x-14" style="edgeStyle=orthogonalEdgeStyle;rounded=0;orthogonalLoop=1;jettySize=auto;html=1;exitX=0.5;exitY=1;exitDx=0;exitDy=0;entryX=0.5;entryY=0;entryDx=0;entryDy=0;endArrow=none;endFill=0;" edge="1" parent="1" source="x3x7l86GUneWaQ4rL31x-5" target="x3x7l86GUneWaQ4rL31x-6">
          <mxGeometry relative="1" as="geometry" />
        </mxCell>
        <mxCell id="x3x7l86GUneWaQ4rL31x-5" value="&lt;font face=&quot;Lucida Console&quot;&gt;char *output = process(input);&lt;/font&gt;" style="shape=process;whiteSpace=wrap;html=1;backgroundOutline=1;" vertex="1" parent="1">
          <mxGeometry x="40" y="370" width="160" height="80" as="geometry" />
        </mxCell>
        <mxCell id="x3x7l86GUneWaQ4rL31x-15" style="edgeStyle=orthogonalEdgeStyle;rounded=0;orthogonalLoop=1;jettySize=auto;html=1;exitX=0.5;exitY=1;exitDx=0;exitDy=0;entryX=0.5;entryY=0;entryDx=0;entryDy=0;endArrow=none;endFill=0;" edge="1" parent="1" source="x3x7l86GUneWaQ4rL31x-6" target="x3x7l86GUneWaQ4rL31x-7">
          <mxGeometry relative="1" as="geometry" />
        </mxCell>
        <mxCell id="x3x7l86GUneWaQ4rL31x-6" value="&lt;font face=&quot;Lucida Console&quot;&gt;printf(&quot;\&quot;%s\&quot;\n&quot;, output);&lt;/font&gt;" style="shape=parallelogram;perimeter=parallelogramPerimeter;whiteSpace=wrap;html=1;fixedSize=1;" vertex="1" parent="1">
          <mxGeometry x="40" y="480" width="160" height="80" as="geometry" />
        </mxCell>
        <mxCell id="x3x7l86GUneWaQ4rL31x-16" style="edgeStyle=orthogonalEdgeStyle;rounded=0;orthogonalLoop=1;jettySize=auto;html=1;exitX=0.5;exitY=1;exitDx=0;exitDy=0;entryX=0.5;entryY=0;entryDx=0;entryDy=0;endArrow=none;endFill=0;" edge="1" parent="1" source="x3x7l86GUneWaQ4rL31x-7" target="x3x7l86GUneWaQ4rL31x-9">
          <mxGeometry relative="1" as="geometry" />
        </mxCell>
        <mxCell id="x3x7l86GUneWaQ4rL31x-7" value="&lt;font style=&quot;font-size: 16px;&quot; face=&quot;Lucida Console&quot;&gt;free(input);&lt;br&gt;free(output);&lt;/font&gt;" style="rounded=0;whiteSpace=wrap;html=1;" vertex="1" parent="1">
          <mxGeometry x="40" y="590" width="160" height="80" as="geometry" />
        </mxCell>
        <mxCell id="x3x7l86GUneWaQ4rL31x-12" style="edgeStyle=orthogonalEdgeStyle;rounded=0;orthogonalLoop=1;jettySize=auto;html=1;exitX=0.5;exitY=1;exitDx=0;exitDy=0;entryX=0.5;entryY=0;entryDx=0;entryDy=0;endArrow=none;endFill=0;" edge="1" parent="1" source="x3x7l86GUneWaQ4rL31x-8" target="x3x7l86GUneWaQ4rL31x-3">
          <mxGeometry relative="1" as="geometry" />
        </mxCell>
        <mxCell id="x3x7l86GUneWaQ4rL31x-8" value="&lt;span style=&quot;font-family: &amp;quot;Lucida Console&amp;quot;;&quot;&gt;char *input = readline(PROMPT);&lt;/span&gt;" style="shape=parallelogram;perimeter=parallelogramPerimeter;whiteSpace=wrap;html=1;fixedSize=1;" vertex="1" parent="1">
          <mxGeometry x="40" y="150" width="160" height="80" as="geometry" />
        </mxCell>
        <mxCell id="x3x7l86GUneWaQ4rL31x-17" style="edgeStyle=orthogonalEdgeStyle;rounded=0;orthogonalLoop=1;jettySize=auto;html=1;exitX=0;exitY=0.5;exitDx=0;exitDy=0;entryX=0;entryY=0.5;entryDx=0;entryDy=0;" edge="1" parent="1" source="x3x7l86GUneWaQ4rL31x-9" target="x3x7l86GUneWaQ4rL31x-3">
          <mxGeometry relative="1" as="geometry">
            <Array as="points">
              <mxPoint x="30" y="740" />
              <mxPoint x="30" y="300" />
            </Array>
          </mxGeometry>
        </mxCell>
        <mxCell id="x3x7l86GUneWaQ4rL31x-9" value="&lt;font style=&quot;font-size: 13px;&quot; face=&quot;Lucida Console&quot;&gt;input = readline(PROMPT);&lt;/font&gt;" style="shape=parallelogram;perimeter=parallelogramPerimeter;whiteSpace=wrap;html=1;fixedSize=1;" vertex="1" parent="1">
          <mxGeometry x="40" y="700" width="160" height="80" as="geometry" />
        </mxCell>
        <mxCell id="x3x7l86GUneWaQ4rL31x-10" value="&lt;font style=&quot;font-size: 18px;&quot; face=&quot;Lucida Console&quot;&gt;Конец&lt;/font&gt;" style="rounded=1;whiteSpace=wrap;html=1;arcSize=50;" vertex="1" parent="1">
          <mxGeometry x="240" y="260" width="160" height="80" as="geometry" />
        </mxCell>
        <mxCell id="x3x7l86GUneWaQ4rL31x-19" value="&lt;font face=&quot;Lucida Console&quot;&gt;1&lt;/font&gt;" style="text;html=1;align=center;verticalAlign=middle;resizable=0;points=[];autosize=1;strokeColor=none;fillColor=none;" vertex="1" parent="1">
          <mxGeometry x="105" width="30" height="30" as="geometry" />
        </mxCell>
        <mxCell id="x3x7l86GUneWaQ4rL31x-20" value="&lt;font face=&quot;Lucida Console&quot;&gt;2&lt;/font&gt;" style="text;html=1;align=center;verticalAlign=middle;resizable=0;points=[];autosize=1;strokeColor=none;fillColor=none;" vertex="1" parent="1">
          <mxGeometry x="305" width="30" height="30" as="geometry" />
        </mxCell>
        <mxCell id="x3x7l86GUneWaQ4rL31x-21" value="&lt;font face=&quot;Lucida Console&quot;&gt;A&lt;/font&gt;" style="text;html=1;align=center;verticalAlign=middle;resizable=0;points=[];autosize=1;strokeColor=none;fillColor=none;" vertex="1" parent="1">
          <mxGeometry y="65" width="30" height="30" as="geometry" />
        </mxCell>
        <mxCell id="x3x7l86GUneWaQ4rL31x-22" value="&lt;font face=&quot;Lucida Console&quot;&gt;B&lt;/font&gt;" style="text;html=1;align=center;verticalAlign=middle;resizable=0;points=[];autosize=1;strokeColor=none;fillColor=none;" vertex="1" parent="1">
          <mxGeometry y="175" width="30" height="30" as="geometry" />
        </mxCell>
        <mxCell id="x3x7l86GUneWaQ4rL31x-23" value="&lt;font face=&quot;Lucida Console&quot;&gt;C&lt;/font&gt;" style="text;html=1;align=center;verticalAlign=middle;resizable=0;points=[];autosize=1;strokeColor=none;fillColor=none;" vertex="1" parent="1">
          <mxGeometry y="285" width="30" height="30" as="geometry" />
        </mxCell>
        <mxCell id="x3x7l86GUneWaQ4rL31x-24" value="&lt;font face=&quot;Lucida Console&quot;&gt;D&lt;/font&gt;" style="text;html=1;align=center;verticalAlign=middle;resizable=0;points=[];autosize=1;strokeColor=none;fillColor=none;" vertex="1" parent="1">
          <mxGeometry y="395" width="30" height="30" as="geometry" />
        </mxCell>
        <mxCell id="x3x7l86GUneWaQ4rL31x-25" value="&lt;font face=&quot;Lucida Console&quot;&gt;E&lt;/font&gt;" style="text;html=1;align=center;verticalAlign=middle;resizable=0;points=[];autosize=1;strokeColor=none;fillColor=none;" vertex="1" parent="1">
          <mxGeometry y="505" width="30" height="30" as="geometry" />
        </mxCell>
        <mxCell id="x3x7l86GUneWaQ4rL31x-26" value="&lt;font face=&quot;Lucida Console&quot;&gt;F&lt;/font&gt;" style="text;html=1;align=center;verticalAlign=middle;resizable=0;points=[];autosize=1;strokeColor=none;fillColor=none;" vertex="1" parent="1">
          <mxGeometry y="615" width="30" height="30" as="geometry" />
        </mxCell>
        <mxCell id="x3x7l86GUneWaQ4rL31x-27" value="&lt;font face=&quot;Lucida Console&quot;&gt;G&lt;/font&gt;" style="text;html=1;align=center;verticalAlign=middle;resizable=0;points=[];autosize=1;strokeColor=none;fillColor=none;" vertex="1" parent="1">
          <mxGeometry y="725" width="30" height="30" as="geometry" />
        </mxCell>
        <mxCell id="x3x7l86GUneWaQ4rL31x-28" value="&lt;font face=&quot;Lucida Console&quot;&gt;Лабораторная работа №4а Молчанов Степан Б24-516&lt;/font&gt;" style="text;html=1;align=center;verticalAlign=middle;resizable=0;points=[];autosize=1;strokeColor=none;fillColor=none;" vertex="1" parent="1">
          <mxGeometry x="467" y="750" width="360" height="30" as="geometry" />
        </mxCell>
      </root>
    </mxGraphModel>
  </diagram>
</mxfile>
